<svg width="567" height="236" viewBox="0 0 567 236" xmlns="http://www.w3.org/2000/svg"><title>stokr + smoke</title><g fill="none" fill-rule="evenodd"><g transform="translate(0 44.3)" fill="#AAB8BF"><rect x="107.719" y="32.117" width="46.5" height="46" rx="2"/><path d="M49.685 169.27c18.928 0 28.29-5.917 28.08-17.753 0-3.738-1.87-6.645-5.616-8.722-3.745-2.076-8.425-3.84-14.04-5.295-5.617-1.453-11.754-3.01-18.41-4.672-6.656-1.66-12.896-3.945-18.72-6.853-5.825-2.907-10.61-6.696-14.353-11.368-3.744-4.673-5.616-10.435-5.616-17.287 0-6.853 1.04-12.72 3.12-17.6 2.08-4.88 5.2-9.084 9.36-12.614 8.946-7.683 21.426-11.525 37.443-11.525 12.896 0 25.273 2.078 37.13 6.23 2.287.832 4.107 2.233 5.46 4.206 1.35 1.973 2.027 4.05 2.027 6.23 0 2.18-.988 4.308-2.964 6.385s-3.9 3.116-5.772 3.116c-1.872 0-4.16-.416-6.864-1.246-8.113-2.492-17.057-3.738-26.833-3.738-9.777 0-17.16 1.66-22.153 4.984-4.992 3.322-7.488 7.423-7.488 12.303 0 4.88 1.872 8.41 5.616 10.59 3.744 2.18 8.476 4.1 14.196 5.762 5.72 1.66 11.96 3.218 18.72 4.672 6.76 1.453 12.95 3.634 18.566 6.54 13.312 6.853 19.968 17.34 19.968 31.46 0 11.006-4.16 19.83-12.48 26.476-8.736 7.475-21.113 11.213-37.13 11.213-17.056 0-32.45-3.842-46.177-11.525-2.912-2.076-4.42-4.62-4.524-7.63-.103-3.012.833-5.608 2.81-7.788 1.975-2.18 4.003-3.27 6.083-3.27s4.784.726 8.112 2.18c9.777 4.36 20.593 6.54 32.45 6.54zm120.25.935c4.575 0 7.85-.363 9.827-1.09 1.976-.727 4.108-1.09 6.396-1.09 2.29 0 4.37.882 6.24 2.648 1.873 1.765 2.81 4.36 2.81 7.786 0 3.426-1.665 5.866-4.993 7.32-7.28 3.322-13.52 4.983-18.72 4.983-5.2 0-9.933-.26-14.198-.78-4.264-.518-8.372-1.92-12.324-4.204-9.36-5.4-14.04-14.952-14.04-28.657V78.008h-18.097c-3.12 0-4.784-1.66-4.992-4.984 0-1.453.832-2.803 2.496-4.05l34.633-33.95c1.456-1.454 2.912-2.232 4.368-2.336 1.457-.104 2.6.363 3.433 1.402.832 1.038 1.248 2.284 1.248 3.737v20.246h29.018c2.913 0 5.305.935 7.177 2.804 1.872 1.868 2.808 4.256 2.808 7.164 0 2.908-.936 5.296-2.808 7.165-1.872 1.868-4.264 2.803-7.177 2.803H154.02v77.246c0 6.438 1.977 10.798 5.93 13.082 2.08 1.246 5.408 1.87 9.984 1.87zM269.9 55.58c19.76 0 35.674 6.23 47.738 18.69 12.065 12.667 17.89 28.967 17.473 48.902 0 20.142-5.824 36.443-17.473 48.902-12.064 12.46-27.977 18.69-47.738 18.69-19.968 0-35.777-6.23-47.425-18.69-12.065-12.46-18.097-28.76-18.097-48.902 0-20.35 6.032-36.65 18.097-48.902 11.648-12.46 27.457-18.69 47.425-18.69zm-28.55 103.568c4.058 3.634 8.634 6.28 13.73 7.943 5.096 1.662 10.036 2.492 14.82 2.492 4.785 0 9.673-.83 14.665-2.49 4.992-1.663 9.568-4.362 13.73-8.1 9.15-8.306 13.727-20.35 13.727-36.13 0-15.368-4.576-27.307-13.728-35.82-7.697-7.06-17.16-10.488-28.394-10.28-18.512 0-31.305 8.306-38.377 24.918-2.496 6.022-3.744 13.186-3.744 21.492 0 8.306 1.25 15.47 3.745 21.492 2.496 6.022 5.772 10.85 9.828 14.484zm226.18 12.303c1.663 2.078 2.495 4.62 2.495 7.632 0 3.01-1.092 5.503-3.276 7.476-2.183 1.973-4.628 2.96-7.332 2.96-4.16 0-7.696-1.558-10.608-4.673l-43.994-59.804-22.153 20.247v32.705c0 3.115-1.144 5.815-3.432 8.1-2.287 2.283-4.99 3.425-8.11 3.425-3.12 0-5.825-1.142-8.113-3.426-2.288-2.283-3.432-4.983-3.432-8.098V12.286c0-3.115 1.092-5.814 3.276-8.098 2.185-2.285 4.94-3.427 8.27-3.427 3.12 0 5.823 1.143 8.11 3.428 2.29 2.284 3.433 4.983 3.433 8.098V116.63l60.843-56.065c2.704-2.076 5.772-3.115 9.204-3.115 3.432 0 5.928 1.194 7.488 3.582 1.56 2.388 2.34 4.517 2.34 6.386 0 3.737-1.456 7.06-4.368 9.967l-36.817 33.017 46.178 61.05zm46.613-91.885c12.065-15.99 25.48-23.984 40.25-23.984h1.248c3.12 0 5.772 1.092 7.956 3.272 2.183 2.18 3.275 4.932 3.275 8.254 0 3.323-1.144 5.97-3.432 7.943-2.288 1.972-5.096 2.958-8.424 2.958h-1.25c-8.528 0-16.12 2.076-22.776 6.23-6.656 4.152-12.273 9.55-16.85 16.196v77.558c0 3.115-1.143 5.815-3.43 8.1-2.29 2.283-4.993 3.425-8.113 3.425-3.12 0-5.823-1.142-8.112-3.426-2.288-2.283-3.432-4.983-3.432-8.098V68.664c0-3.115 1.092-5.867 3.276-8.255 2.185-2.39 4.94-3.583 8.27-3.583 3.12 0 5.823 1.142 8.11 3.427 2.29 2.284 3.433 5.087 3.433 8.41v10.9z"/></g><path d="M188.174 53.96c2.215.91 4.64 1.414 7.185 1.414 10.415 0 18.86-8.43 18.86-18.827 0-.186-.004-.37-.01-.554 6.547-2.953 11.102-9.528 11.102-17.166C225.313 8.43 216.87 0 206.452 0c-2.767 0-5.396.595-7.764 1.665C196.317.595 193.69 0 190.922 0c-7.65 0-14.237 4.548-17.195 11.083-.185-.006-.37-.008-.555-.008-8.1 0-15.007 5.097-17.678 12.254-4.59 1.706-8.332 5.144-10.432 9.52-6.237 2.984-10.576 9.29-10.715 16.623-2.625 1.244-4.44 3.914-4.44 7.008 0 1.648.514 3.176 1.39 4.43-.876 1.257-1.39 2.784-1.39 4.43 0 .84.133 1.65.38 2.408-.245.627-.38 1.31-.38 2.023 0 3.06 2.483 5.538 5.546 5.538 1.815 0 3.426-.87 4.438-2.215 2.173 0 4.137-.89 5.547-2.325.358.072.73.11 1.11.11 1.868 0 3.52-.92 4.525-2.333.7.078 1.41.12 2.13.12 5.13 0 9.778-2.044 13.178-5.36 1.784.603 3.695.93 5.683.93 7.14 0 13.294-4.21 16.11-10.276z" fill="#FFF"/></g></svg>