<svg width="40" height="73" viewBox="0 0 40 73" xmlns="http://www.w3.org/2000/svg"><title>Rectangle 1</title><path d="M20.268.954C19.922.67 19.478.5 18.998.5H2.502C1.393.5.5 1.39.5 2.49v16.02c0 .124.012.246.034.364-.002.03-.003.063-.003.095.095 1.5.845 2.25 2.25 2.25h8.158v35.718c0 6.187 2.11 10.5 6.328 12.937 1.78 1.03 3.632 1.664 5.554 1.898 1.922.235 4.055.352 6.4.352 2.343 0 5.155-.75 8.436-2.25 1.5-.656 2.25-1.758 2.25-3.305 0-1.547-.422-2.718-1.265-3.515-.843-.797-1.78-1.196-2.812-1.196-1.03 0-1.992.163-2.883.492-.89.328-2.367.492-4.43.492-2.062 0-3.562-.28-4.5-.844-1.78-1.03-2.67-3-2.67-5.906V21.22H34.42c1.312 0 2.39-.423 3.234-1.267.844-.844 1.266-1.922 1.266-3.234 0-1.314-.422-2.392-1.266-3.236-.844-.843-1.922-1.265-3.234-1.265H21.344V3.077c0-.656-.188-1.22-.563-1.687-.148-.186-.32-.33-.512-.436z" fill="#4D5E63" fill-rule="evenodd"/></svg>