<svg width="256" height="107" viewBox="0 0 256 107" xmlns="http://www.w3.org/2000/svg"><title>stokr + smoke</title><g fill="none" fill-rule="evenodd"><g transform="translate(0 20)" fill="#4D5E63"><rect x="49" y="14.5" width="20.5" height="20" rx="2"/><path d="M22.844 76.422c8.53 0 12.75-2.672 12.656-8.016 0-1.687-.844-3-2.53-3.937-1.69-.94-3.798-1.736-6.33-2.392-2.53-.656-5.296-1.36-8.296-2.11-3-.75-5.813-1.78-8.438-3.093-2.625-1.313-4.78-3.023-6.47-5.133-1.686-2.11-2.53-4.71-2.53-7.804 0-3.094.47-5.743 1.406-7.946.938-2.203 2.344-4.1 4.22-5.695 4.03-3.47 9.655-5.203 16.874-5.203 5.813 0 11.39.937 16.735 2.812 1.032.375 1.852 1.008 2.462 1.9.61.89.914 1.827.914 2.81 0 .986-.446 1.946-1.336 2.884-.89.938-1.758 1.406-2.602 1.406-.844 0-1.875-.187-3.094-.562-3.656-1.125-7.687-1.688-12.093-1.688s-7.734.75-9.984 2.25-3.375 3.352-3.375 5.555c0 2.204.845 3.798 2.533 4.782 1.687.985 3.82 1.852 6.398 2.602 2.58.75 5.392 1.453 8.438 2.11 3.047.655 5.836 1.64 8.368 2.952 6 3.094 9 7.828 9 14.203 0 4.968-1.875 8.952-5.625 11.953-3.937 3.375-9.515 5.062-16.734 5.062-7.687 0-14.625-1.734-20.812-5.203-1.313-.938-1.992-2.086-2.04-3.445-.046-1.36.376-2.532 1.266-3.516.89-.983 1.805-1.476 2.742-1.476.938 0 2.157.328 3.657.985 4.405 1.968 9.28 2.952 14.624 2.952zm54.197.422c2.063 0 3.54-.164 4.43-.492.89-.33 1.852-.493 2.883-.493 1.03 0 1.97.398 2.813 1.195.843.797 1.265 1.968 1.265 3.515 0 1.547-.75 2.65-2.25 3.305-3.28 1.5-6.092 2.25-8.436 2.25-2.344 0-4.477-.117-6.4-.352-1.92-.234-3.772-.867-5.553-1.898-4.218-2.438-6.327-6.75-6.327-12.938V35.22h-8.157c-1.406 0-2.156-.75-2.25-2.25 0-.658.375-1.267 1.125-1.83l15.61-15.328c.657-.656 1.313-1.007 1.97-1.054.656-.047 1.17.164 1.546.633.375.47.563 1.032.563 1.688v9.14h13.077c1.312 0 2.39.423 3.234 1.266.845.844 1.267 1.922 1.267 3.235 0 1.31-.422 2.39-1.266 3.233-.843.844-1.92 1.266-3.233 1.266H69.87v34.874c0 2.906.89 4.875 2.67 5.906.938.563 2.438.844 4.5.844zm45.057-51.75c8.906 0 16.078 2.812 21.516 8.437 5.437 5.72 8.062 13.08 7.875 22.08 0 9.093-2.625 16.452-7.875 22.078-5.438 5.625-12.61 8.437-21.516 8.437-9 0-16.125-2.812-21.375-8.438-5.438-5.625-8.156-12.984-8.156-22.078 0-9.188 2.718-16.547 8.156-22.08 5.25-5.624 12.375-8.436 21.375-8.436zM109.23 71.852c1.828 1.64 3.89 2.835 6.187 3.585s4.524 1.126 6.68 1.126c2.156 0 4.36-.375 6.61-1.126 2.25-.75 4.312-1.968 6.187-3.656 4.125-3.75 6.187-9.186 6.187-16.31 0-6.94-2.06-12.33-6.186-16.173-3.47-3.188-7.735-4.735-12.797-4.64-8.344 0-14.11 3.75-17.297 11.25-1.125 2.718-1.688 5.952-1.688 9.702s.563 6.984 1.688 9.703c1.125 2.718 2.602 4.898 4.43 6.54zm101.94 5.554c.75.938 1.124 2.086 1.124 3.446 0 1.36-.492 2.484-1.477 3.375-.984.89-2.086 1.335-3.305 1.335-1.875 0-3.468-.703-4.78-2.11l-19.83-27-9.983 9.142V80.36c0 1.406-.517 2.624-1.548 3.656-1.03 1.03-2.25 1.546-3.656 1.546-1.407 0-2.625-.515-3.657-1.546-1.032-1.032-1.548-2.25-1.548-3.657V5.546c0-1.406.493-2.625 1.477-3.656.983-1.03 2.226-1.546 3.726-1.546 1.406 0 2.625.515 3.656 1.547 1.03 1.032 1.547 2.25 1.547 3.657v47.11l27.42-25.313c1.22-.938 2.602-1.407 4.15-1.407 1.546 0 2.67.54 3.374 1.618.703 1.078 1.055 2.04 1.055 2.883 0 1.687-.657 3.187-1.97 4.5l-16.594 14.906 20.813 27.562zm21.008-41.484c5.438-7.22 11.484-10.828 18.14-10.828h.563c1.408 0 2.603.492 3.587 1.476.985.985 1.477 2.227 1.477 3.727s-.516 2.695-1.547 3.586c-1.03.89-2.297 1.336-3.797 1.336h-.563c-3.843 0-7.265.936-10.265 2.81-3 1.876-5.53 4.314-7.594 7.314V80.36c0 1.406-.515 2.624-1.547 3.656-1.03 1.03-2.25 1.546-3.655 1.546-1.406 0-2.625-.515-3.656-1.546-1.033-1.032-1.548-2.25-1.548-3.657V31c0-1.406.492-2.648 1.476-3.727.985-1.078 2.227-1.617 3.727-1.617 1.406 0 2.625.516 3.656 1.547 1.033 1.03 1.548 2.297 1.548 3.797v4.922z"/></g><path d="M85.262 24.36c.998.413 2.09.64 3.238.64 4.694 0 8.5-3.806 8.5-8.5 0-.084 0-.167-.004-.25C99.946 14.917 102 11.948 102 8.5c0-4.694-3.806-8.5-8.5-8.5-1.248 0-2.433.27-3.5.752C88.933.27 87.748 0 86.5 0c-3.448 0-6.417 2.053-7.75 5.004C78.667 5 78.584 5 78.5 5c-3.65 0-6.764 2.3-7.968 5.532-2.068.77-3.755 2.324-4.7 4.3-2.812 1.346-4.768 4.193-4.83 7.504C59.818 22.896 59 24.103 59 25.5c0 .744.232 1.433.627 2-.395.567-.627 1.256-.627 2 0 .38.06.745.172 1.087-.11.283-.172.59-.172.913 0 1.38 1.12 2.5 2.5 2.5.818 0 1.544-.393 2-1 .98 0 1.864-.402 2.5-1.05.16.033.33.05.5.05.842 0 1.586-.416 2.04-1.054.315.036.635.054.96.054 2.31 0 4.407-.922 5.94-2.42.803.273 1.664.42 2.56.42 3.218 0 5.992-1.9 7.262-4.64z" fill="#A8A8A8"/></g></svg>